<svg version="1.1" xmlns="http://www.w3.org/2000/svg" viewBox="0 0 838.6682772531829 526.1485092808978" width="838.6682772531829" height="526.1485092808978">
  <!-- svg-source:excalidraw -->
  
  <defs>
    <style class="style-fonts">
      @font-face {
        font-family: "Virgil";
        src: url("https://excalidraw.com/Virgil.woff2");
      }
      @font-face {
        font-family: "Cascadia";
        src: url("https://excalidraw.com/Cascadia.woff2");
      }
      @font-face {
        font-family: "Assistant";
        src: url("https://excalidraw.com/Assistant-Regular.woff2");
      }
    </style>
    
  </defs>
  <rect x="0" y="0" width="838.6682772531829" height="526.1485092808978" fill="#ffffff"></rect><g stroke-linecap="round" transform="translate(281 319.14850928089777) rotate(0 82.5 72)"><path d="M0 0 C0 0, 0 0, 0 0 M0 0 C0 0, 0 0, 0 0 M-2.96 13.97 C3.28 5.23, 9.09 5.69, 8.66 1.82 M1.04 12.67 C1.09 8.4, 5.37 8.49, 9.48 -1.01 M1.94 20.52 C4.55 20.99, 14.62 10.78, 23.04 2.13 M-1.07 25.85 C5.83 17.89, 12.31 12.69, 22.64 -1.71 M0.76 33.09 C6.58 27.55, 21.06 11.7, 32.96 -0.03 M1.7 37.48 C5.6 30.45, 11.23 23.21, 30.53 -0.15 M-2.6 45.61 C13.21 34.16, 27.95 16.97, 42.15 0.55 M-0.1 47.87 C11.51 37.25, 20.96 24.31, 40.88 -0.23 M3.39 62.64 C21.57 42.94, 38.13 19.64, 51.89 1.2 M-0.59 60.09 C20.64 37.15, 39.6 16.17, 55.13 1.15 M1.94 74.58 C23.16 40.9, 49.13 17.16, 62.74 1.58 M1.21 74.23 C14.67 52.68, 30.49 34.75, 65 -0.98 M-2.47 84.15 C15.9 70.02, 31.13 47.34, 76.79 -2.57 M1.55 85.25 C15.45 65.64, 36.37 45.1, 73.38 1.39 M1.55 100.92 C22.57 69.99, 56.24 35.32, 83.93 -1.65 M0.19 96.9 C22.67 69.18, 45.22 44.51, 83.21 -1.58 M-2.87 108.02 C28.71 77.94, 56.13 50.55, 96.08 -2.49 M-0.07 111.82 C25.87 80.27, 52.29 52.08, 94.36 -0.43 M1.48 124.45 C32.12 82.23, 67.79 39.34, 109.46 -2.58 M-0.51 121.17 C32.28 86.44, 59.86 51.91, 104.45 -1.33 M-1.24 131.77 C25.9 105.71, 50.36 75.97, 114.18 -3.59 M1.05 134.74 C26.28 103.8, 53.07 71.52, 117.17 -0.18 M-1.04 147.13 C36.21 104.87, 67.15 66.45, 123.07 3.42 M-0.24 145.36 C45.5 99.85, 85.58 51.6, 125.67 -0.49 M13.45 146.97 C42.97 113.58, 69.09 84.41, 138.08 4.21 M13.91 143.93 C41.37 106.54, 75.23 69.41, 137.59 0.27 M25.55 143.93 C54.09 107.57, 80.24 77.62, 147.07 0.14 M22.09 143.75 C67.35 88.21, 115.21 35.45, 146.48 0.75 M35.08 142.43 C62.74 108.85, 88.19 81.82, 157.45 2.64 M34.43 143.47 C72.77 101.77, 109.91 61.74, 160.09 1.65 M43.38 142.96 C88.69 89.94, 135.42 34.82, 162.48 7.51 M44.19 142.72 C82.3 101.94, 121.88 60.1, 165.26 3.3 M55.59 143.86 C87.59 101.43, 126.88 67.24, 164.79 14.63 M56.67 143.3 C91.42 107.14, 121.74 66.77, 166.07 16.84 M66.88 143.05 C86.57 111.48, 114.83 85.42, 161.79 29.4 M66.11 146.28 C105 102.66, 140.97 63.05, 163.92 28.95 M72.73 147.79 C103.83 111.03, 124.15 85.92, 166.88 39.61 M76.54 145.11 C103.15 110.75, 130.85 81.75, 165.26 42.14 M87.13 144.43 C106.23 116.18, 133.88 91.55, 166.25 54.1 M86.65 142.78 C102.3 123.44, 120.68 104.54, 165.17 52.81 M96.88 148.14 C121.43 121.47, 142.15 89.75, 163.79 69.6 M98.66 144.91 C114.05 123.5, 132.17 105.37, 166.74 65.4 M111.81 140.68 C128.4 123.09, 138.77 108.56, 166.69 81.14 M107.23 144.88 C126.6 118.95, 148.62 94.48, 165.41 78.21 M119.04 144.16 C133.61 127.76, 147.34 116.78, 163.01 92.59 M120.32 145 C127.37 130.87, 138.49 121.15, 165.08 89.35 M125.24 142.77 C136.89 129.54, 153.17 116.32, 166.59 99.41 M128.02 145.56 C137.89 133.39, 148.97 122.79, 165.71 102.77 M142.84 140.53 C145.92 136.43, 158.2 125.99, 167.31 110.91 M139.49 146.01 C143.62 136.29, 150.55 132.98, 164.18 114 M152.35 147.05 C153.37 135.04, 162.67 134.05, 168.01 124.95 M151.82 142.08 C154.78 139.33, 157.8 134.26, 165.82 128.18 M160.87 145.13 C163.86 141.68, 163.66 139.88, 164.39 138.63 M161.69 143.59 C162.22 142.3, 163.45 140.66, 165.29 138.44" stroke="#a5d8ff" stroke-width="1" fill="none"></path><path d="M3.91 0.85 C62.46 4.25, 130.38 2.35, 161.59 -0.85 M0.94 -1.37 C64.34 -3.42, 128.46 -1.06, 166.93 1.65 M167.8 1.98 C170.35 40.08, 167.72 75.7, 162.3 144.76 M166.72 1.63 C166.49 53.55, 165.87 103.35, 165.19 144.09 M164.39 145.09 C118.49 143.01, 71.92 139.72, 3.02 141.1 M163.86 145.89 C100.33 142.53, 40.81 142.54, 0.94 143.54 M1.2 143.37 C-3.19 107.99, 2.34 74.37, 1.04 0.95 M1.26 145.83 C-2.87 94.99, -1.45 41.32, -1.25 -1.95" stroke="#1e1e1e" stroke-width="2" fill="none"></path></g><g transform="translate(305.68333435058594 366.14850928089777) rotate(0 57.81666564941406 25)"><text x="57.81666564941406" y="17.52" font-family="Virgil, Segoe UI Emoji" font-size="20px" fill="#1e1e1e" text-anchor="middle" style="white-space: pre;" direction="ltr" dominant-baseline="alphabetic">Order </text><text x="57.81666564941406" y="42.519999999999996" font-family="Virgil, Segoe UI Emoji" font-size="20px" fill="#1e1e1e" text-anchor="middle" style="white-space: pre;" direction="ltr" dominant-baseline="alphabetic">Microservice</text></g><g stroke-linecap="round"><g transform="translate(356.4883084671312 318.14850928089777) rotate(0 -1.2441542335656095 -81)"><path d="M0 0 C-2.74 -48.37, -1.26 -98.07, -2.49 -162 M0 0 C-0.9 -32.75, -2.1 -66.59, -2.49 -162" stroke="#1e1e1e" stroke-width="2" fill="none"></path></g><g transform="translate(356.4883084671312 318.14850928089777) rotate(0 -1.2441542335656095 -81)"><path d="M6.24 -138.57 C2.79 -144.42, 2.35 -151.63, -2.49 -162 M6.24 -138.57 C4.45 -142.79, 1.96 -148.08, -2.49 -162" stroke="#1e1e1e" stroke-width="2" fill="none"></path></g><g transform="translate(356.4883084671312 318.14850928089777) rotate(0 -1.2441542335656095 -81)"><path d="M-10.86 -138.44 C-9.07 -144.4, -4.26 -151.64, -2.49 -162 M-10.86 -138.44 C-9.13 -142.62, -8.1 -147.93, -2.49 -162" stroke="#1e1e1e" stroke-width="2" fill="none"></path></g></g><mask></mask><g stroke-linecap="round" transform="translate(654.8414609035506 332.0193253531563) rotate(0 86.02620182031501 12.134893781396386)"><path d="M136.51 0.57 C148.05 1.44, 158.86 5.56, 164.57 7.73 C170.28 9.9, 171.68 12.13, 170.79 13.59 C169.9 15.06, 165.4 14.9, 159.24 16.54 C153.08 18.18, 144.51 22.43, 133.82 23.42 C123.12 24.42, 108.69 22.37, 95.08 22.53 C81.47 22.69, 64.32 25.05, 52.14 24.38 C39.96 23.72, 30.56 20.25, 22.01 18.52 C13.45 16.8, 3.9 15.79, 0.8 14.05 C-2.3 12.31, -0.44 10.07, 3.41 8.08 C7.26 6.08, 14.98 3.06, 23.9 2.09 C32.81 1.12, 44.2 2.64, 56.91 2.25 C69.62 1.87, 82.44 -1.11, 100.15 -0.21 C117.87 0.69, 151.6 5.41, 163.21 7.63 C174.81 9.85, 171.5 13.43, 169.78 13.12 M153.87 6.58 C163.19 7.43, 169.88 5.6, 172.36 7.23 C174.83 8.85, 172.36 14.01, 168.73 16.35 C165.1 18.69, 160.29 20.4, 150.6 21.29 C140.91 22.17, 123.32 20.92, 110.57 21.66 C97.83 22.41, 87.1 25.59, 74.12 25.75 C61.14 25.91, 43.62 24.54, 32.68 22.65 C21.73 20.76, 14 16.19, 8.43 14.41 C2.86 12.64, -1.71 13.22, -0.72 11.98 C0.27 10.74, 7.82 8.39, 14.38 6.99 C20.95 5.58, 28.34 4.38, 38.68 3.55 C49.02 2.73, 63.27 2.48, 76.42 2.04 C89.56 1.6, 104.83 0.46, 117.57 0.89 C130.3 1.32, 147.15 4.29, 152.84 4.6 C158.53 4.91, 153.26 2.62, 151.69 2.74" stroke="#000000" stroke-width="1" fill="none"></path></g><g stroke-linecap="round" transform="translate(654.6815989099712 426.92447689781466) rotate(0 86.17758864011398 16.32349572416379)"><path d="M136.48 3.85 C147.46 5.5, 155.56 8.06, 161.22 9.89 C166.87 11.71, 170.07 12.29, 170.4 14.81 C170.73 17.34, 168.93 22.83, 163.2 25.03 C157.46 27.24, 147.31 26.64, 135.98 28.06 C124.65 29.48, 108.32 33.19, 95.23 33.54 C82.14 33.89, 69.89 31.34, 57.44 30.16 C44.99 28.98, 29.59 28.26, 20.5 26.46 C11.41 24.66, 5.76 22.01, 2.9 19.38 C0.04 16.74, 0.3 12.7, 3.33 10.65 C6.35 8.6, 12.05 8.73, 21.03 7.08 C30.01 5.42, 44.49 1.7, 57.21 0.73 C69.94 -0.25, 83.78 0.56, 97.38 1.22 C110.99 1.88, 131.65 4.39, 138.84 4.69 C146.03 4.99, 141.03 3, 140.53 3.04 M89.4 -2.46 C101.89 -2.88, 115.48 1.09, 127.27 2.83 C139.07 4.57, 153.21 6.36, 160.17 7.99 C167.13 9.62, 167.7 9.94, 169.02 12.6 C170.34 15.26, 172.81 21.13, 168.08 23.95 C163.36 26.76, 151.05 28.6, 140.66 29.48 C130.27 30.37, 118.58 28.79, 105.74 29.28 C92.91 29.77, 76.09 32.43, 63.65 32.43 C51.21 32.43, 41.06 30.77, 31.11 29.3 C21.16 27.82, 9.44 25.76, 3.96 23.57 C-1.51 21.38, -3.41 18.93, -1.76 16.14 C-0.11 13.34, 5.68 9.17, 13.88 6.8 C22.08 4.43, 35.11 3.37, 47.43 1.93 C59.74 0.49, 81.55 -1.61, 87.78 -1.85 C94.01 -2.09, 84.85 -0.32, 84.82 0.48" stroke="#000000" stroke-width="1" fill="none"></path></g><g stroke-linecap="round"><g transform="translate(826.764715336333 343.9267112584722) rotate(0 0.27684287684769515 49.6213428211442)"><path d="M-2.45 1.97 C-2.42 18.25, 1.13 81.76, 1.9 97.51 M1.41 0.58 C1.05 17.2, 0.43 83.95, 0.4 100.21" stroke="#000000" stroke-width="1" fill="none"></path></g></g><mask></mask><g stroke-linecap="round"><g transform="translate(655.0381782400189 344.6417360118696) rotate(0 -0.15395269810051104 50.0277845405582)"><path d="M1.35 -1.73 C1.98 14.16, 1.94 80.2, 1.32 97.32 M-1.36 3.51 C-0.74 19.45, -0.81 84.05, -0.04 99.47" stroke="#000000" stroke-width="1" fill="none"></path></g></g><mask></mask><g stroke-linecap="round"><g transform="translate(446.9999999999998 390.127996460385) rotate(0 97.5 -1)"><path d="M0 0 C47.6 -1.52, 91.53 -3.23, 195 -2 M0 0 C53.37 -0.01, 105.29 0.5, 195 -2" stroke="#1e1e1e" stroke-width="2" fill="none"></path></g><g transform="translate(446.9999999999998 390.127996460385) rotate(0 97.5 -1)"><path d="M171.7 7.05 C178.42 5.13, 181.47 1.74, 195 -2 M171.7 7.05 C178.33 4.18, 183.57 2.77, 195 -2" stroke="#1e1e1e" stroke-width="2" fill="none"></path></g><g transform="translate(446.9999999999998 390.127996460385) rotate(0 97.5 -1)"><path d="M171.33 -10.05 C178.17 -7.9, 181.31 -7.22, 195 -2 M171.33 -10.05 C178.21 -8.27, 183.55 -5.03, 195 -2" stroke="#1e1e1e" stroke-width="2" fill="none"></path></g></g><mask></mask><g transform="translate(695.9999999999998 389.14850928089777) rotate(0 49.43333435058594 12.5)"><text x="0" y="17.52" font-family="Virgil, Segoe UI Emoji" font-size="20px" fill="#1e1e1e" text-anchor="start" style="white-space: pre;" direction="ltr" dominant-baseline="alphabetic">Database</text></g><g stroke-linecap="round" transform="translate(10 250.14850928089777) rotate(0 48 133)"><path d="M0 0 C0 0, 0 0, 0 0 M0 0 C0 0, 0 0, 0 0 M0.47 15.17 C4.5 7.13, 8.48 2.1, 12.76 -2.21 M0.37 11.05 C1.91 8.52, 6.57 5.55, 10.03 -0.18 M2.38 24.12 C5.08 19.37, 15.72 9.48, 21.55 -3.34 M0.86 25.77 C7.17 18.93, 13.7 11.37, 20.81 -0.7 M0.49 35.68 C8.29 27.64, 18.04 14.51, 31.73 3.85 M-1.7 37.77 C11.59 22.16, 20.64 8.93, 32.67 -0.62 M0.24 51.05 C17.47 29.24, 26.65 11.51, 40.95 2.29 M1.67 47.54 C11.49 36.26, 25.04 23.4, 41.94 1.05 M-3.95 63.5 C14.1 42.27, 24.47 34.84, 49.67 -2.24 M-1.64 61.86 C21.47 34.98, 41.68 14.49, 53.42 -0.73 M0.29 73.88 C15.6 53.09, 30.5 32.41, 63.86 -3.86 M1.67 71.62 C14.55 57.09, 30.3 40.46, 65.07 0 M-3.12 85.13 C22.93 63.72, 33.63 44.46, 73.27 -2.87 M-0.9 85.77 C22.84 58.32, 43.11 33.51, 72.88 1.34 M-1.14 96.77 C19.26 76.95, 40.48 46.61, 85.71 -3.97 M0.52 97.14 C21.92 74.45, 44.36 50.22, 83.78 -1.33 M-2.72 111.66 C21.96 85.77, 41.06 60.92, 97.26 1.48 M1.69 108.56 C27.97 80.26, 53.39 48.92, 96.47 -2.23 M-0.49 118.25 C39.7 82.84, 77.73 39.49, 97.97 2.48 M1.19 122.53 C29.83 94.76, 54.82 64.84, 101.74 5.21 M2.12 137.31 C40.72 84.31, 80.7 43.03, 97.94 17.08 M-0.05 135.31 C31.58 99.31, 61.03 62.36, 103.2 16.43 M0.46 144.47 C27.32 106.97, 55.27 73.54, 101.53 25.65 M1.41 146.79 C34.3 109.48, 66.52 70.95, 102.1 28.35 M-1.73 160.68 C34.67 118.39, 70.78 76.88, 103.83 44.4 M-0.21 158.43 C34.76 114.18, 72.79 70.86, 100.4 40.31 M-3.45 170.97 C33.99 125.76, 72.15 86.78, 101.45 53.4 M-0.45 171.26 C22.71 143.36, 44.25 119.14, 102.24 53.44 M-0.14 186.72 C23.08 158.28, 51.82 123.87, 98.79 66.8 M0.39 183.63 C31.1 144.11, 61.5 109.58, 102.78 64.24 M-2.78 196.39 C32.67 164.25, 56.86 128.32, 104.97 75.57 M0.67 193.28 C29.29 163.06, 53.95 128.31, 103.79 78.76 M3.68 208.03 C27.42 176.71, 48.82 149.24, 103.4 90.04 M1.68 207.2 C34.01 168.02, 66.46 132.5, 101.84 90.42 M-2.08 219.77 C30.37 180.81, 62.24 146.08, 101.35 102.38 M-0.14 219.56 C27.22 191.06, 53.29 159.81, 100.48 101.92 M-0.87 234.58 C42.91 184.43, 79.73 139.61, 102.88 117.3 M-1.73 233.75 C27.72 201.58, 56.71 165.35, 101.79 115.34 M1.33 242.51 C39.25 194.65, 75.28 151.92, 99.1 126.4 M-0.45 244.09 C33.34 205.61, 65.65 167.89, 103.3 125.81 M2.21 259.45 C39.46 211.46, 72 171.63, 105.06 138.85 M1.42 253.92 C23.56 225.08, 48.31 199.26, 101.48 139.57 M-2.55 264.88 C26.63 238.23, 46.99 214.17, 105.36 151.88 M1.54 268.69 C28.89 228.31, 63.74 193.63, 103.99 151.9 M14.75 266.54 C36.24 243.64, 48.04 225.8, 103.74 161.34 M10.28 268.09 C37.07 238.2, 57.93 212.59, 101.84 164.98 M24.59 269.9 C38.65 242.45, 64.69 215.63, 103.93 176.39 M24 266.84 C53.07 233.9, 80.7 197.02, 100.97 173.99 M35.35 270.69 C51.37 243.76, 73.17 220.01, 99.99 185.79 M34.84 266.57 C52.26 243.26, 70.06 225.2, 103.1 188.76 M45.68 267.99 C58.39 249.67, 75.5 228.3, 105.18 196.65 M41.75 268.36 C69.1 242.23, 89.94 213.04, 101.32 199.91 M54.76 265.95 C74.54 245.71, 94.32 225.32, 105.53 212.88 M55.3 265.78 C70.67 248.09, 84.32 229.88, 100.22 212.67 M64.57 267.56 C81.61 251.09, 90.47 234.34, 101.48 221.75 M66.65 266.03 C79.02 251.89, 89.09 236.89, 100.17 224.82 M74.15 268.41 C81.5 257.7, 89.78 255.2, 104.71 240.62 M76.35 267.11 C83.89 255.69, 95.89 243.61, 100.82 236.76 M89.78 266.39 C93.1 257.9, 101.11 254.25, 104.47 251.17 M87.25 266.89 C93.79 258.69, 98.26 254.88, 101.99 249.19 M0.37 266.32 C0.37 266.32, 0.37 266.32, 0.37 266.32 M0.37 266.32 C0.37 266.32, 0.37 266.32, 0.37 266.32 M13.06 265.46 C6.35 261.4, 2.26 258.43, -0.36 254.91 M13.62 267.37 C10.72 265.14, 4.89 262.42, -0.31 257.06 M27.81 268.02 C19.14 258.57, 7.4 250.78, 1.71 244.56 M25 266.93 C16.23 259.45, 10.97 252.78, 1.97 246.89 M33.55 269.06 C25.75 257.37, 10.22 241.98, -0.75 237.62 M35.77 266.01 C21.78 253.47, 11.16 244.53, -0.68 236.34 M50.3 262.26 C40.41 255.2, 27.37 245.15, 1.69 221.38 M48.43 267.47 C31.9 252.46, 17.35 239.4, -1.52 224.97 M63.48 269.71 C41.2 250.55, 22.28 230.74, -0.76 215.1 M60.63 264.72 C47.73 254.94, 32.22 242, -0.89 214.02 M70.86 269.27 C48.76 241.84, 27.38 224.2, -3.56 200.09 M71.5 264.21 C58.28 251.66, 41.12 236.21, -1.2 203.67 M88.78 264.86 C61.22 246, 43.11 224.51, -2.08 193.92 M87.32 266.31 C54.69 238.69, 24.82 208.16, 2.12 193.86 M94.18 261.33 C69.66 246.58, 55.15 230.64, 2.12 180.74 M94.91 266.85 C65.03 237.75, 30.33 209.19, 1.81 181.24 M98.03 251.57 C55.46 221.82, 20.63 189.01, 3.11 169.45 M98.38 254.81 C76.37 236.31, 55.36 218.92, -0.13 171.97 M98.74 246.28 C78.7 226.95, 58.06 206.14, 0.26 156.02 M96.05 244.72 C67.85 212.98, 35.71 186.32, 0.7 158.64 M98.76 231.36 C56.49 198.31, 18.74 170.79, 0.04 149.7 M96.27 232.71 C62.52 205.07, 33.49 179.42, 0.21 149.14 M93.63 219.97 C76.53 207.51, 54.4 187.95, 1.75 135.26 M97.92 223.2 C77.46 205.44, 58.19 186.79, -1.03 139.51 M97.71 214.86 C63.64 187.65, 31.77 153.21, -0.7 131.29 M95.54 213.76 C60.87 179.64, 23.54 147.13, -0.7 126.85 M97.95 202.53 C66.5 178.99, 41.13 156.01, -1.11 120.39 M96.43 200.03 C71.4 178, 45.89 155.15, -1.57 118.17 M95.65 187.53 C72.65 172.25, 47.91 143.12, -3.15 107.46 M97.77 192.53 C76.24 174.61, 60.14 157.8, 1.61 107.28 M100.17 178.7 C60.66 147.6, 28.08 116.83, -2.68 97.96 M95.79 181.62 C73.56 162.16, 53.93 142.13, -0.78 95.65 M98.73 167.43 C61.78 140.62, 24.35 108.19, -1.96 84.11 M94.83 170.29 C61.29 140.78, 24.81 107.73, -0.08 85.29 M98.13 161.87 C60.9 123.97, 27.06 92.4, 0.07 71.19 M96.54 159.09 C70.28 138.35, 47.88 120.92, -0.24 75.63 M94.49 149.24 C71.99 128.13, 46.14 99.19, 1.58 63.74 M96.92 146.99 C63.03 119.25, 30.35 91.02, -0.68 64.41 M99.79 138.69 C70.36 114.23, 35.73 86.34, -0.45 51.86 M96.27 136.89 C68.11 114.69, 39.37 92.08, 0.81 52.52 M100.58 128.94 C59.97 93.97, 26.27 58.81, -0.43 45.46 M97.28 125.92 C58.68 91.75, 22.56 62.44, 1.22 44.89 M96.25 114.47 C64.72 90.63, 42.08 63.47, 2.3 37.1 M98.64 118.19 C57.33 84.71, 23.21 53.46, 2.19 32.04 M97.78 109.15 C73.84 89.02, 50.13 68.26, 2.23 25.69 M97.21 107.1 C74.65 83, 48.56 65.89, 0.11 24.31 M98.22 93.13 C57.89 69.99, 27.03 35.04, 1.95 14.63 M97.87 96.81 C76.15 78.82, 58.27 59.4, -0.23 12.66 M98.49 87.1 C62.42 54.39, 23.92 24.19, 2.88 3.49 M98.61 87.19 C75.78 66.98, 54.53 50.12, 0.49 2.95 M93.05 74.54 C75.07 47.8, 48.44 28.71, 4.31 -5.24 M95.74 74.62 C75.81 59.4, 51.67 37.76, 6.51 -6.6 M95.74 59.97 C76.95 52.89, 63.43 36.54, 15.11 -9.05 M96.91 64.91 C68.64 39.24, 39.09 11.89, 18.07 -5.8 M93.45 55.2 C74.77 41.74, 62.01 25.12, 30.4 -3.1 M98.34 54.16 C71.42 31.63, 45.65 10.42, 27.51 -7.47 M95.93 41.58 C80.57 23.68, 58.14 8.83, 44.2 -1.52 M97.86 41.64 C74.64 23.89, 52.04 2.47, 43.21 -6.17 M97.51 28.25 C85.26 20.68, 71.79 3.65, 56.61 -4.39 M96.09 30.67 C87.03 24.07, 78.92 16.96, 52.21 -6.51 M94.86 22.37 C84.92 11.73, 74.17 3.56, 64.07 -7.53 M97.52 21.46 C87.72 14.02, 82.92 8.81, 65.83 -6.35 M96.71 7.42 C91.57 4.53, 80.96 -3.65, 74.1 -2.87 M95.69 12.06 C89.42 6.31, 83.68 0.43, 77.75 -6.53" stroke="#ffec99" stroke-width="1" fill="none"></path><path d="M-0.66 -2.27 C25.62 -5.06, 41.81 1.93, 94.17 1.88 M-1.12 0.6 C26.27 -1.69, 51.92 1.08, 94.7 0.52 M93.04 1.99 C101.01 83.29, 100.38 171.66, 93.17 264.03 M97.09 1.02 C96.17 54.81, 95.08 106.37, 96.93 264.92 M99.31 268.86 C62.34 266.38, 22.3 268.55, 3.03 269.9 M96.4 267.26 C71.38 267.62, 50.51 264.66, 1.41 266.96 M-2.37 267.07 C-0.64 203.86, -5.11 137, 1.6 2.78 M0.3 265.32 C3.22 203.84, 2.09 145.72, 1.31 -0.27" stroke="#1e1e1e" stroke-width="2" fill="none"></path></g><g transform="translate(39.38333320617676 370.64850928089777) rotate(0 18.616666793823242 12.5)"><text x="18.616666793823242" y="17.52" font-family="Virgil, Segoe UI Emoji" font-size="20px" fill="#1e1e1e" text-anchor="middle" style="white-space: pre;" direction="ltr" dominant-baseline="alphabetic">API</text></g><g stroke-linecap="round"><g transform="translate(112.00000000000023 373.85513312446176) rotate(0 79.49999999999989 0.5374653618034699)"><path d="M0 0 C40.03 -0.32, 81.19 -2.24, 159 1.07 M0 0 C55.11 0.73, 110.79 0.75, 159 1.07" stroke="#1e1e1e" stroke-width="2" fill="none"></path></g><g transform="translate(112.00000000000023 373.85513312446176) rotate(0 79.49999999999989 0.5374653618034699)"><path d="M135.46 9.5 C140.47 7.87, 146.58 3.5, 159 1.07 M135.46 9.5 C143.03 6.78, 151.14 3.47, 159 1.07" stroke="#1e1e1e" stroke-width="2" fill="none"></path></g><g transform="translate(112.00000000000023 373.85513312446176) rotate(0 79.49999999999989 0.5374653618034699)"><path d="M135.55 -7.6 C140.49 -4.8, 146.58 -4.75, 159 1.07 M135.55 -7.6 C143.04 -4.31, 151.12 -1.62, 159 1.07" stroke="#1e1e1e" stroke-width="2" fill="none"></path></g></g><mask></mask><g stroke-linecap="round" transform="translate(375.97015537923244 57.831400780915494) rotate(90.58601858780379 55.55858227927888 8.488842036253764)"><path d="M-0.55 7.47 C-0.55 7.47, -0.55 7.47, -0.55 7.47 M-0.55 7.47 C-0.55 7.47, -0.55 7.47, -0.55 7.47 M2.83 9.08 C4.88 7.67, 5.58 6.44, 7.47 5.03 M3.22 9.52 C4.22 7.97, 5.18 6.51, 7.35 4.55 M6.88 11.45 C9.92 9.15, 11.69 6.25, 12.4 4.75 M6.5 11.16 C8.17 9.74, 9.67 8.26, 12.76 4.42 M11.49 12.4 C14.28 8.46, 16.3 6.52, 20.16 3.84 M10.99 13.07 C11.84 11.29, 14.22 9.6, 18.36 3.05 M14.5 14.73 C15.81 11.32, 20.1 7.59, 24.39 3.3 M15.48 14.38 C17.42 11.84, 20.4 8.55, 25.91 1.42 M21.48 15.37 C20.61 9.98, 23.18 10.13, 30.69 3.39 M20.27 14.04 C21.96 11.99, 24.63 8.62, 31.35 2.37 M24.49 16.92 C26.78 11.89, 32.14 9.03, 38.64 -1.35 M24.7 15.82 C28.69 11.71, 32.22 7.77, 37.11 1.4 M28.47 14.24 C34.49 9.43, 38 4.86, 44.7 -0.91 M28.67 15.52 C32.49 10.81, 37.24 8.54, 42.64 0 M35.46 17.34 C36.29 14.48, 39.81 10.99, 48.35 0.65 M34.92 15.59 C39.35 11.14, 42.64 5.61, 48.54 1.51 M38.53 16.8 C46.39 9.87, 48.91 4.14, 52.99 1.11 M39.96 16.99 C43.23 12.71, 46.66 8.2, 52.91 0.78 M42.94 17.12 C49.65 10.37, 53.59 7.78, 59.46 1.25 M44.72 15.62 C49.65 12.3, 54.23 7.65, 58.69 0.5 M48.41 16.84 C54.47 11.03, 58.8 3.72, 65.54 -0.96 M50.49 17.68 C54.52 12.92, 57.5 8.14, 64.89 -1.34 M53.91 17.1 C61.13 9.19, 66.29 7.19, 69.54 0.19 M55.38 17.67 C59.13 11.85, 61.74 9.07, 69.79 0.43 M60.59 17.09 C65.07 12.37, 65.21 8.54, 72.45 1.8 M60.99 17.02 C66.54 11.09, 70.23 5.23, 74.83 1.14 M66.67 17.39 C68.67 12.85, 74.28 9.65, 79.51 0.73 M64.93 16.82 C68.4 13.03, 72.14 10.45, 79.86 1.93 M72.8 15.88 C77.39 10.73, 79.72 6.75, 85.03 3.24 M70.08 16.98 C75.06 11.67, 80.25 6.54, 83.7 2.72 M75.06 17.75 C81.04 14.16, 80.93 9.87, 87.1 4.08 M76.31 16.02 C81.31 12.01, 85.57 7.19, 88.1 2.7 M82.47 15.1 C86.26 11.97, 85.81 9.73, 93.46 2.37 M82.05 16.15 C85.53 11.66, 90.39 6.93, 92.71 4.45 M88.17 14.14 C91.33 12.98, 93.02 9.55, 98.55 5.41 M87.82 15.28 C91.18 11.42, 94.14 9.05, 97.48 3.54 M93.26 13.66 C97.25 11.55, 98.06 7.62, 101.32 6.18 M93.93 13.75 C95.6 11.9, 97.82 9.92, 101.51 4.66 M100.62 11.86 C103.41 10.03, 104.95 7.97, 107.08 6.13 M100.96 12.19 C102.74 11.06, 103.65 8.89, 106.79 6.42 M107.95 10.7 C108.68 9.9, 109.05 9.73, 109.3 8.8 M108.16 10.55 C108.37 10.23, 108.65 9.94, 109.33 9.07" stroke="#ffec99" stroke-width="0.5" fill="none"></path><path d="M64.54 -0.83 C74.08 -0.46, 85.37 1.87, 92.73 3.15 C100.08 4.42, 105.95 5.66, 108.66 6.84 C111.36 8.02, 112 8.83, 108.95 10.23 C105.91 11.63, 98.13 14.18, 90.37 15.24 C82.61 16.29, 72.09 16.38, 62.4 16.56 C52.72 16.74, 41.23 16.97, 32.26 16.32 C23.29 15.66, 14.12 14.05, 8.61 12.63 C3.09 11.21, -0.91 9.18, -0.83 7.79 C-0.76 6.4, 3.48 5.48, 9.06 4.29 C14.65 3.1, 22.27 1.45, 32.66 0.66 C43.05 -0.14, 64.26 -0.56, 71.42 -0.48 C78.57 -0.39, 75.77 0.8, 75.57 1.17 M41.5 -0.22 C50.5 -0.66, 64 1.36, 73.68 1.73 C83.35 2.1, 93.14 0.84, 99.56 2 C105.98 3.16, 111.4 7.2, 112.19 8.69 C112.97 10.18, 108.82 9.64, 104.27 10.94 C99.71 12.23, 93.53 15.45, 84.86 16.45 C76.19 17.46, 62.68 16.94, 52.24 16.98 C41.79 17.01, 30.16 17.46, 22.19 16.68 C14.21 15.9, 8.11 14.08, 4.41 12.3 C0.71 10.53, -1.76 7.56, 0 6.03 C1.76 4.51, 7.9 4.07, 14.97 3.17 C22.04 2.27, 37.84 1.24, 42.41 0.64 C46.99 0.04, 42.01 -0.51, 42.4 -0.41" stroke="#f08c00" stroke-width="1" fill="none"></path></g><g stroke-linecap="round" transform="translate(226.86457575350846 55.11128982157704) rotate(90.58601858780379 55.65635292247623 10.542256441481584)"><path d="M-1.58 11.88 C-1.58 11.88, -1.58 11.88, -1.58 11.88 M-1.58 11.88 C-1.58 11.88, -1.58 11.88, -1.58 11.88 M4.44 12.62 C4.47 11.02, 7.9 10.02, 9.59 3.39 M1.92 13.48 C3.78 9.7, 8.36 6.68, 11.03 3.63 M8.32 17.45 C8.98 13.74, 9.6 11.09, 12.92 3.05 M6.13 15.41 C9.75 12.23, 11.39 9.58, 16.58 3.83 M11.3 14.78 C12.47 14.36, 21.3 9.03, 17.69 2.6 M8.38 17.84 C12.77 15.44, 12.98 10.55, 19.7 3.53 M10.62 17.97 C20.15 9.98, 20.28 11.43, 24.65 4.48 M13.98 20.04 C18.52 14.82, 22.53 8.18, 25.39 5.25 M15.06 14.97 C18.77 17.55, 25.58 13.9, 28.26 0.96 M18.16 19.24 C22.71 13.28, 27.42 11.6, 31.01 2 M22.05 19.69 C31.1 15.65, 36.7 3.56, 37.32 5.2 M25.28 20.08 C27.35 17.68, 29.17 14.19, 39.39 2.86 M28.57 18.86 C28.73 17.98, 40.22 8.84, 41.94 2.31 M28.02 17.68 C34.03 17.47, 35.95 10.78, 41.23 2.34 M32.41 22.79 C38.82 16.09, 44.88 8.12, 49.44 4.42 M35.68 19.36 C36.75 14.55, 41.72 14.23, 50.63 2.25 M42.63 18.78 C40.52 15.65, 46.48 12.3, 53.48 5.72 M40 20.7 C42.99 15.7, 46.64 10.72, 53.6 1.32 M46.63 16.46 C51.68 14.8, 53.84 13.07, 60.47 -0.1 M45.64 21.47 C50.46 17.41, 51.66 12.28, 61.82 -0.68 M48.54 20.73 C52.9 11.31, 63.99 4.86, 64.68 1.49 M51.92 21.22 C56.29 12.84, 62.79 3.06, 67.15 0.96 M57.7 16.03 C63.4 17.49, 65.51 8.4, 69.28 4.27 M56.65 18.18 C59.43 14.93, 65.32 9.03, 70.04 0.97 M62.99 19.34 C63.46 11.33, 69.87 6.92, 80.1 -0.43 M61.9 20.85 C62.18 16.87, 68.25 12.66, 76.61 0.98 M64.65 20.67 C74.59 15.36, 79.53 3.59, 80.07 -1.73 M65.13 19.17 C70.15 17.07, 75.03 12.57, 84.58 2.21 M74.02 19.6 C72.07 18.82, 81.38 13.42, 88.96 -1.22 M70.35 19.63 C76.49 14.63, 78.67 12.82, 86.29 0.01 M79.9 22.21 C78.46 14.15, 82.76 12.26, 93.79 4.55 M77.84 20.85 C82.79 15.54, 84.48 9.9, 90.49 0.05 M85.72 16.65 C83.11 12.86, 92.53 5.85, 97.91 3.07 M80.68 19.79 C87.78 13.76, 90.31 11.39, 94.87 3.89 M89.76 20.27 C91.12 15.1, 96.77 14.22, 100.07 6.51 M88.45 17.61 C92.59 15.55, 95.23 8.07, 100.38 4.42 M94.54 18.93 C92.49 13.62, 96 15.97, 100.92 3.71 M92.19 17.34 C96.25 14.51, 96.84 11.52, 104.42 7.03 M100.28 17.37 C101.82 14.9, 105.79 12.32, 106.42 8.54 M99.47 19.25 C101.18 13.84, 106.51 11.28, 107.27 9.4 M108.98 12.96 C109.71 12.88, 109.57 11.04, 109.81 11 M108.35 13.54 C109.11 12.71, 109.64 11.85, 110.63 11.18" stroke="#ffec99" stroke-width="0.5" fill="none"></path><path d="M27.16 3.4 C34.79 2.86, 46.44 1.69, 56.61 1.16 C66.79 0.64, 80.04 -0.72, 88.21 0.25 C96.37 1.21, 101.89 5.05, 105.61 6.96 C109.32 8.86, 111.77 9.84, 110.5 11.7 C109.22 13.55, 104.68 16.68, 97.96 18.08 C91.24 19.49, 80.44 19.91, 70.18 20.14 C59.92 20.37, 46.17 19.8, 36.41 19.48 C26.64 19.16, 17.89 19.53, 11.6 18.22 C5.31 16.9, -0.6 13.92, -1.33 11.59 C-2.06 9.26, -0.73 6.01, 7.23 4.22 C15.18 2.43, 35.7 1.26, 46.39 0.84 C57.08 0.42, 71.18 1.57, 71.39 1.71 M94.81 5.58 C102.55 6.49, 108.1 4.01, 110.72 5.78 C113.35 7.55, 114.39 14.48, 110.58 16.2 C106.77 17.92, 95.81 15.07, 87.86 16.08 C79.91 17.1, 72.88 21.66, 62.87 22.29 C52.85 22.92, 37.49 20.52, 27.77 19.84 C18.05 19.16, 9.03 19.64, 4.56 18.19 C0.08 16.74, 0.19 13.75, 0.92 11.15 C1.65 8.54, 3.2 4.12, 8.92 2.56 C14.64 0.99, 25.53 2, 35.24 1.75 C44.96 1.49, 57.38 1.08, 67.21 1.03 C77.05 0.97, 89.46 0.99, 94.27 1.41 C99.08 1.83, 96.61 3.63, 96.07 3.56" stroke="#f08c00" stroke-width="1" fill="none"></path></g><g stroke-linecap="round"><g transform="translate(355.2237703317055 48.33937597879535) rotate(90.58601858780379 -0.1480894880382948 73.90336720674065)"><path d="M-2.64 -0.12 C-1.99 24.29, 1.73 121.54, 2.39 146.38 M1.13 -2.65 C1.78 22.11, 1.74 124.79, 1.62 149.24" stroke="#f08c00" stroke-width="1" fill="none"></path></g></g><mask></mask><g stroke-linecap="round"><g transform="translate(356.178150249925 -63.90357539379213) rotate(90.58601858780379 0.3306298356513935 74.35541795007147)"><path d="M2.69 -1.43 C3.51 23.57, 3 125.18, 2.28 149.86 M0.71 3.97 C1.54 28.12, 0.38 121.35, 0.92 145.47" stroke="#f08c00" stroke-width="1" fill="none"></path></g></g><mask></mask><g stroke-linecap="round"><g transform="translate(331.1883184844485 50.018910196569486) rotate(0 21.676137914280275 -3.9960288457207866)" fill-rule="evenodd"><path d="M1.27 1.85 C1.79 4.03, 1.89 9.97, 1.83 12.51 C1.77 15.05, -0.23 16.16, 0.89 17.09 C2.01 18.03, 5.07 18.04, 8.55 18.12 C12.03 18.2, 16.66 17.72, 21.77 17.6 C26.87 17.47, 35.91 17.96, 39.18 17.37 C42.45 16.78, 40.31 15.04, 41.38 14.07 C42.44 13.09, 45.44 14.31, 45.58 11.51 C45.71 8.7, 42.84 0.2, 42.21 -2.76 C41.58 -5.73, 42.4 -5.32, 41.8 -6.27 C41.19 -7.22, 40.24 -8.05, 38.58 -8.45 C36.93 -8.85, 33.74 -8.42, 31.88 -8.67 C30.01 -8.91, 28.73 -8.69, 27.39 -9.93 C26.04 -11.16, 23.98 -13.42, 23.82 -16.09 C23.67 -18.77, 26.7 -24.01, 26.47 -25.99 C26.23 -27.97, 24.3 -28.03, 22.43 -27.97 C20.55 -27.91, 16.43 -27.68, 15.23 -25.61 C14.02 -23.54, 14.97 -18.57, 15.2 -15.54 C15.43 -12.51, 17.17 -8.99, 16.6 -7.44 C16.04 -5.89, 13.22 -5.7, 11.81 -6.25 C10.4 -6.79, 8.94 -9.18, 8.12 -10.73 C7.3 -12.27, 7.03 -13.06, 6.89 -15.51 C6.75 -17.95, 7.77 -23.88, 7.28 -25.4 C6.8 -26.92, 5.08 -24.87, 3.97 -24.64 C2.86 -24.41, 0.94 -26.18, 0.61 -24.02 C0.29 -21.85, 2.05 -15.64, 2 -11.65 C1.95 -7.67, 0.94 -1.78, 0.32 -0.13" stroke="none" stroke-width="0" fill="#fd7e14" fill-rule="evenodd"></path><path d="M0.57 -0.09 C0.93 1.96, 0.97 9.05, 1.13 12.12 C1.29 15.18, 0.31 17.19, 1.54 18.31 C2.77 19.44, 4.81 18.66, 8.51 18.85 C12.22 19.03, 18.71 19.5, 23.77 19.42 C28.83 19.35, 35.82 19.06, 38.89 18.39 C41.95 17.71, 41.42 16.66, 42.14 15.4 C42.86 14.14, 42.91 13.6, 43.22 10.82 C43.53 8.04, 43.99 1.39, 44 -1.27 C44 -3.94, 44.07 -3.94, 43.24 -5.18 C42.42 -6.43, 40.81 -8.35, 39.04 -8.74 C37.28 -9.13, 34.68 -7.52, 32.67 -7.53 C30.67 -7.54, 28.27 -7.13, 27.02 -8.82 C25.77 -10.52, 25.71 -15.08, 25.2 -17.7 C24.68 -20.32, 24.73 -22.95, 23.95 -24.54 C23.16 -26.13, 21.59 -27.38, 20.48 -27.26 C19.37 -27.14, 17.85 -25.45, 17.27 -23.82 C16.69 -22.18, 17.16 -19.99, 17 -17.46 C16.83 -14.93, 17.07 -10.38, 16.3 -8.64 C15.53 -6.91, 13.51 -6.96, 12.37 -7.03 C11.23 -7.1, 10.27 -7.64, 9.49 -9.07 C8.71 -10.51, 7.89 -13, 7.7 -15.64 C7.52 -18.28, 8.92 -23.38, 8.4 -24.91 C7.88 -26.44, 5.8 -25.06, 4.57 -24.84 C3.35 -24.61, 1.99 -25.42, 1.07 -23.55 C0.16 -21.68, -0.58 -17.51, -0.92 -13.62 C-1.25 -9.72, -0.95 -2.58, -0.93 -0.18 M-0.59 -1.18 C-0.21 0.55, 0.45 7.53, 0.72 10.46 C0.98 13.38, -0.35 15.33, 1 16.36 C2.34 17.39, 5.22 16.59, 8.79 16.65 C12.37 16.72, 17.73 16.62, 22.45 16.75 C27.17 16.88, 33.8 17.35, 37.11 17.43 C40.43 17.51, 41.52 18.3, 42.34 17.23 C43.16 16.16, 41.99 13.74, 42.05 10.98 C42.1 8.21, 42.86 3.35, 42.66 0.64 C42.46 -2.06, 41.31 -3.78, 40.84 -5.26 C40.38 -6.75, 41.44 -7.85, 39.88 -8.27 C38.31 -8.69, 33.49 -7.54, 31.47 -7.8 C29.45 -8.05, 28.95 -8.04, 27.77 -9.81 C26.58 -11.59, 25.03 -15.91, 24.35 -18.45 C23.68 -21, 24.26 -23.72, 23.71 -25.07 C23.17 -26.41, 22.38 -26.32, 21.1 -26.52 C19.82 -26.72, 16.94 -27.76, 16.05 -26.28 C15.16 -24.8, 15.96 -20.61, 15.76 -17.63 C15.56 -14.65, 15.34 -9.91, 14.84 -8.41 C14.34 -6.9, 13.78 -8.27, 12.78 -8.6 C11.77 -8.94, 9.68 -9.11, 8.83 -10.43 C7.98 -11.76, 7.71 -13.95, 7.67 -16.55 C7.63 -19.16, 9.4 -24.64, 8.6 -26.07 C7.8 -27.51, 4.39 -25.68, 2.87 -25.15 C1.35 -24.62, -0.01 -24.8, -0.52 -22.87 C-1.02 -20.95, -0.26 -17.3, -0.16 -13.61 C-0.07 -9.92, -0.02 -2.92, 0.04 -0.72" stroke="#000000" stroke-width="1" fill="none"></path></g></g><mask></mask><g stroke-linecap="round"><g transform="translate(358.4377408044038 53.43036774793591) rotate(0 4.296291421075921 1.9553987020029524)" fill-rule="evenodd"><path d="M0.07 0.99 C0.38 0.71, 0.56 -2.3, 0.98 -2.84 C1.41 -3.39, 1.83 -2.44, 2.62 -2.28 C3.42 -2.12, 4.68 -1.95, 5.74 -1.88 C6.8 -1.82, 8.63 -2.49, 8.98 -1.86 C9.34 -1.24, 7.86 1.11, 7.87 1.87 C7.89 2.63, 8.91 1.87, 9.08 2.7 C9.26 3.53, 9.24 6.12, 8.91 6.85 C8.59 7.58, 8.32 7.12, 7.15 7.08 C5.97 7.03, 3.12 6.9, 1.86 6.59 C0.59 6.28, -0.02 5.65, -0.45 5.24 C-0.88 4.83, -0.7 5.07, -0.75 4.14 C-0.79 3.2, -0.98 0.17, -0.74 -0.34" stroke="none" stroke-width="0" fill="#ffff" fill-rule="evenodd"></path><path d="M0.3 0.26 C0.44 0.02, 0.59 -1.06, 1.01 -1.44 C1.43 -1.82, 1.97 -1.94, 2.81 -2.03 C3.64 -2.13, 5.09 -2.1, 6 -2 C6.92 -1.9, 7.92 -1.87, 8.31 -1.43 C8.7 -0.99, 8.3 -0.22, 8.34 0.62 C8.37 1.46, 8.5 2.83, 8.51 3.62 C8.52 4.42, 8.74 4.92, 8.4 5.39 C8.07 5.85, 7.39 6.34, 6.5 6.43 C5.61 6.53, 4 6.11, 3.04 5.96 C2.08 5.81, 1.18 6.01, 0.75 5.54 C0.33 5.07, 0.62 4.1, 0.49 3.13 C0.35 2.15, 0.06 0.2, -0.08 -0.32 M0.02 0.09 C0.11 -0.25, 0.37 -1.5, 0.79 -1.95 C1.22 -2.4, 1.7 -2.51, 2.59 -2.62 C3.48 -2.72, 5.22 -2.8, 6.12 -2.58 C7.02 -2.36, 7.59 -1.93, 8.01 -1.29 C8.43 -0.65, 8.51 0.47, 8.62 1.25 C8.73 2.03, 8.73 2.72, 8.66 3.37 C8.59 4.03, 8.62 4.72, 8.2 5.18 C7.78 5.64, 7.13 5.87, 6.15 6.13 C5.18 6.39, 3.21 6.79, 2.34 6.75 C1.46 6.71, 1.26 6.5, 0.91 5.87 C0.55 5.24, 0.38 3.88, 0.22 2.96 C0.06 2.04, -0.08 0.85, -0.05 0.35" stroke="#000000" stroke-width="1" fill="none"></path></g></g><mask></mask><g transform="translate(319 75.64850928089777) rotate(0 34.59166717529297 10)"><text x="0" y="14.016" font-family="Virgil, Segoe UI Emoji" font-size="16px" fill="#1e1e1e" text-anchor="start" style="white-space: pre;" direction="ltr" dominant-baseline="alphabetic">Rabbitmq</text></g></svg>